# xmcd
#
# Track frame offsets: 
#        150
#        15990
#        34340
#        50505
#        65365
#        83047
#        101497
#        121545
#        139825
#        157552
#        177092
#
# Disc length: 2715 seconds
#
# Revision: 2
# Processed by: cddbd v1.5PL3 Copyright (c) Steve Scherf et al.
# Submitted via: ExactAudioCopy v0.95a3
#
DISCID=780a990b
DTITLE=Tommy Shane Steiner - Then Came The Night
DYEAR=2002
DGENRE=Country
TTITLE0=That Just Wouldn't Be Me
TTITLE1=Tell Me Where It Hurts
TTITLE2=What If She's An Angel
TTITLE3=Let Go
TTITLE4=The Mind Of John J. Blanchard
TTITLE5=What We're Gonna Do About It
TTITLE6=I Don't Need Another Reason 
TTITLE7=Havin' A Good Time
TTITLE8=I Go Crazy
TTITLE9=And Yet
TTITLE10=Then Came The Night
EXTD=Ripped By scanner1
EXTT0=
EXTT1=
EXTT2=
EXTT3=
EXTT4=
EXTT5=
EXTT6=
EXTT7=
EXTT8=
EXTT9=
EXTT10=
PLAYORDER=
